# xmcd
#
# Track frame offsets: 
#        150
#        22119
#        43308
#        64476
#        83296
#        122541
#        152286
#        178438
#        200350
#        226333
#
# Disc length: 3347 seconds
#
# Revision: 0
# Processed by: cddbd v1.5.2PL0 Copyright (c) Steve Scherf et al.
# Submitted via: ExactAudioCopy v1.3
#
DISCID=7f0d110a
DTITLE=Rattlebone - World's Gone Crazy
DYEAR=2020
DGENRE=Blues-Rock
TTITLE0=Don't Go Down That Road
TTITLE1=Can't Leave Well Enough Alone
TTITLE2=World's Gone Crazy
TTITLE3=What A Man's Made Of
TTITLE4=Innocent
TTITLE5=Party In The Street
TTITLE6=Should Have Seen It Coming
TTITLE7=Johnny Walker Red
TTITLE8=Trouble Knows My Name
TTITLE9=I'll Be Loving You
EXTD=
EXTT0=
EXTT1=
EXTT2=
EXTT3=
EXTT4=
EXTT5=
EXTT6=
EXTT7=
EXTT8=
EXTT9=
PLAYORDER=
